# xmcd
#
# Track frame offsets: 
#        150
#        12747
#        26162
#        41277
#        56917
#        71035
#        83710
#        98085
#        116840
#        135230
#        151517
#
# Disc length: 2227 seconds
#
# Revision: 1
# Processed by: cddbd v1.5.2PL0 Copyright (c) Steve Scherf et al.
# Submitted via: ExactAudioCopy v1.0b3
#
DISCID=8908b10b
DTITLE=Z.Z. Hill - Bluesmaster
DYEAR=1984
DGENRE=Blues
TTITLE0=You're Ruining My Bad Reputation
TTITLE1=Bottom Line Woman
TTITLE2=She Got the Goods on Me
TTITLE3=Breakdown
TTITLE4=Personally
TTITLE5=Champange Lady
TTITLE6=Be Strong Enough to Hold On
TTITLE7=I'm Gonna Stop You from Givin' Me the Blues
TTITLE8=Friday Is My Day
TTITLE9=I'll Be Your Witness
TTITLE10=Why Don't You Spend the Night
EXTD=YEAR: 1984
EXTT0=
EXTT1=
EXTT2=
EXTT3=
EXTT4=
EXTT5=
EXTT6=
EXTT7=
EXTT8=
EXTT9=
EXTT10=
PLAYORDER=
